<svg width="128" height="64" viewBox="0 0 128 64" xmlns="http://www.w3.org/2000/svg"><path d="m64.638 33.22-.01-.009-3.686-2.84a1.726 1.726 0 0 1-.272-2.479l.207-.246s2.313.293 7.001 3.028a145.02 145.02 0 0 1 8.5 5.373S77.892 35.423 79 35c2.8.097 15.792 1.324 21.718 3.603C106.645 40.883 110 44 110 44l-1 1v3l-1 1v1c1.14.683 1.611 2 0 2h-6v-3a9 9 0 0 0-18 0v4H47v-4a9 9 0 0 0-18 0v3s-2.064-.439-4.148-.895c-2.084-.456-4.832-2.762-4.832-2.762v-2.07L19 44v-3l2-2v-3s5.365-1.762 13-2c7.295-.228 9.956-.003 10 0l.923-3.22a1.412 1.412 0 0 1 1.77-1.035l.438.128v.002c.926-.755 2.782-.047 2.869 1.125.092 1.23-1.183 3.295-1.183 3.295l.684 1.728.225.447c1.646.302 3.482.53 5.274.53h8.092H63v-1c0-1.457 1.062-2.384 1.638-2.78zM45 49a7 7 0 1 1-14 0 7 7 0 0 1 14 0zm55 0a7 7 0 1 1-14 0 7 7 0 0 1 14 0z" fill="#232A36" fill-rule="evenodd"/></svg>