<svg width="128" height="64" viewBox="0 0 128 64" xmlns="http://www.w3.org/2000/svg"><path d="M51.604 36.444 49.64 31.13a.505.505 0 0 1-.019-.063c-2.565.594-4.874 1.332-6.62 1.932 1.08 2.4 4.802 3.164 8.603 3.444zm-1.002-5.593 2.017 5.452a.5.5 0 0 1 .03.206c1.509.08 2.993.1 4.291.134 2.302.06 8.2.325 12.355.354 0 0-.295-.259-.295-.997 0-.365.031-.749.366-1.223.502-.712 1.186-.966 1.355-.884-.11-.07-.223-.142-.339-.218C65.377 30.46 63.613 30 58 30c-2.494 0-5.035.353-7.398.85zM43 49a7 7 0 1 1-14 0 7 7 0 0 1 14 0zm55 0a7 7 0 1 1-14 0 7 7 0 0 1 14 0zm13-2-1 1v2l1 1v1l-11 1v-4a9 9 0 0 0-18 0v4H45v-4a9 9 0 0 0-18 0v3l-10-2v-3l1-1s-.969-3.744-1-5c-.03 0 2-2 2-2l-1-1h4s20.072-10 37-10c8.794 0 16.923 5.158 23.215 8.694.413.03 11.583.797 16.088 1.961C102.807 39.82 111 46 111 46v1z" fill="#232A36" fill-rule="evenodd"/></svg>