<svg width="330" height="131" xmlns="http://www.w3.org/2000/svg" aria-label="nice car aria"><title>nice car</title><g fill="none" fill-rule="evenodd"><path d="M233.888 76.606c-.799-1.82-2.032-2.948-3.509-3.264-.318-.895-.492-1.65-.649-2.335-.503-2.205-.967-3.61-4.053-4.815-6.619-2.574-19.956-4.797-22.51-5.207-2.895-2.949-18.612-18.617-25.977-18.944-.782-.035-1.934-.134-3.376-.263-3.55-.31-8.912-.778-14.575-.778-4.905 0-9.225.357-12.833 1.059-7.98 1.539-16.903 14.896-18.814 17.885-3.19.117-12.763.684-15.04 3.335-2.478 2.843-4.47 7.992-4.736 8.828-.052.088-.267.34-.423.521-1.037 1.2-2.976 3.446-2.224 7.641l.105.573c.92 5.131 2.177 12.158 7.238 12.158h1.766c.684 0 1.24-.562 1.24-1.252 0-8.624 6.954-15.644 15.496-15.644 8.547 0 15.496 7.02 15.496 15.644 0 .69.556 1.252 1.24 1.252h45.162c.684 0 1.24-.562 1.24-1.252 0-8.624 6.948-15.644 15.484-15.644 8.547 0 15.508 7.02 15.508 15.644 0 .69.556 1.252 1.239 1.252h3.712c3.37 0 4.905-5.225 4.905-10.087.011-2.422-.382-4.663-1.112-6.306z" fill="#D2DFE5" fill-rule="nonzero"/><path d="M233.888 76.606c-.799-1.82-2.032-2.948-3.509-3.264-.318-.895-.492-1.65-.649-2.335-.503-2.205-.967-3.61-4.053-4.815-6.619-2.574-19.956-4.797-22.51-5.207-2.895-2.949-18.612-18.617-25.977-18.944-.782-.035-1.934-.134-3.376-.263-3.55-.31-8.912-.778-14.575-.778-4.905 0-9.225.357-12.833 1.059-7.98 1.539-16.903 14.896-18.814 17.885-3.19.117-12.763.684-15.04 3.335-2.478 2.843-4.47 7.992-4.736 8.828-.052.088-.267.34-.423.521-1.037 1.2-2.976 3.446-2.224 7.641l.105.573c.92 5.131 2.177 12.158 7.238 12.158h1.766c.684 0 1.24-.562 1.24-1.252 0-8.624 6.954-15.644 15.496-15.644 8.547 0 15.496 7.02 15.496 15.644 0 .69.556 1.252 1.24 1.252h45.162c.684 0 1.24-.562 1.24-1.252 0-8.624 6.948-15.644 15.484-15.644 8.547 0 15.508 7.02 15.508 15.644 0 .69.556 1.252 1.239 1.252h3.712c3.37 0 4.905-5.225 4.905-10.087.011-2.422-.382-4.663-1.112-6.306zm-3.775 13.89h-2.514c-.642-9.432-8.443-16.903-17.945-16.903-9.49 0-17.285 7.472-17.929 16.903H148.96c-.642-9.432-8.443-16.903-17.94-16.903-9.498 0-17.298 7.472-17.94 16.903h-.568c-2.994 0-4.037-5.833-4.795-10.093l-.105-.579c-.538-3.007.724-4.476 1.65-5.546.395-.45.73-.843.881-1.322.353-1.095 2.241-5.687 4.268-8.022 1.297-1.51 8.912-2.37 13.898-2.498.417-.012.8-.234 1.025-.59.098-.159 9.78-15.826 17.529-17.318 3.457-.667 7.62-1.012 12.369-1.012 5.56 0 10.858.462 14.361.766 1.488.129 2.681.234 3.486.27 5.67.245 19.683 13.432 24.6 18.488.186.193.435.316.695.362.157.024 15.468 2.434 22.405 5.132 2.015.784 2.136 1.31 2.53 3.042.209.895.463 2.012 1.037 3.41.19.469.642.773 1.146.773.863 0 1.581.632 2.131 1.878.585 1.328.91 3.2.91 5.283 0 4.552-1.46 7.577-2.421 7.577l.002-.001z" fill="#18296F" fill-rule="nonzero"/><path d="M131.997 80C125.38 80 120 85.383 120 91.997c0 6.62 5.38 12.003 11.997 12.003S144 98.617 144 91.997 138.614 80 131.997 80zm0 21.48c-5.221 0-9.472-4.253-9.472-9.483 0-5.224 4.25-9.477 9.472-9.477 5.228 0 9.478 4.253 9.478 9.477s-4.256 9.482-9.478 9.482zM211 80c-6.618 0-12 5.383-12 11.997 0 6.62 5.382 12.003 12 12.003s12-5.383 12-12.003c.006-6.62-5.376-11.997-12-11.997zm0 21.48c-5.229 0-9.474-4.253-9.474-9.483 0-5.224 4.245-9.477 9.474-9.477 5.223 0 9.48 4.253 9.48 9.477s-4.251 9.482-9.48 9.482z" fill="#18296F" fill-rule="nonzero"/><path d="M132.003 85c-3.86 0-7.003 3.135-7.003 6.994 0 3.865 3.143 7.006 7.003 7.006 3.86 0 6.997-3.14 6.997-7.006 0-3.86-3.143-6.994-6.997-6.994zm0 11.447a4.465 4.465 0 0 1-4.46-4.459c0-2.452 2.005-4.447 4.46-4.447a4.456 4.456 0 0 1 4.453 4.447 4.462 4.462 0 0 1-4.453 4.459zm79-11.447c-3.86 0-7.003 3.135-7.003 6.994 0 3.865 3.143 7.006 7.003 7.006 3.86 0 6.997-3.14 6.997-7.006A7 7 0 0 0 211.003 85zm0 11.447a4.465 4.465 0 0 1-4.46-4.459 4.457 4.457 0 0 1 8.913 0 4.458 4.458 0 0 1-4.453 4.459zM135 65h27V48.107S160.367 48 157.997 48c-4.945 0-13.085.472-16.163 3.392C137.276 55.709 135 65 135 65zm24.49-2.556h-21.084c1.065-3.021 2.844-7.004 5.138-9.177 1.785-1.696 7.192-2.705 14.46-2.705.538 0 1.036.006 1.486.012v11.87zm14.765-14.032c-3.825-.328-5.887-.412-6.993-.412-1.118 0-1.262.084-1.262.084V65h31c-.006 0-15.077-15.92-22.744-16.588zm-5.79 14.034V50.584c1.153.042 2.916.149 5.583.382 3.82.328 11.119 6.14 16.8 11.486l-22.382-.006zM91.017 82.03c0-1.76.955-3.403 2.492-4.292L92.497 76A6.977 6.977 0 0 0 89 82.03c0 3.848 3.141 6.97 7 6.97v-2.014c-2.746 0-4.983-2.222-4.983-4.956zm11.246 10.404c-1.271-.536-2.257-1.56-2.788-2.868a5.462 5.462 0 0 1 .665-5.259L98.483 83c-1.563 2.114-1.919 4.946-.933 7.398.741 1.843 2.13 3.277 3.92 4.03a6.98 6.98 0 0 0 2.753.572c.94 0 1.879-.193 2.777-.578l-.8-1.988a4.995 4.995 0 0 1-3.937 0zM100 79.734a7.668 7.668 0 0 0 2 .266v-1.799c-.513 0-1.02-.065-1.513-.201L100 79.734zm-1-1.596A6.877 6.877 0 0 1 97.582 77L96 78.503A8.699 8.699 0 0 0 97.876 80L99 78.138zm2-11.748-.413-2.39c-.901.156-1.768.42-2.587.808L99.053 67a7.544 7.544 0 0 1 1.947-.61zm-6 3.163L93.35 69a7.29 7.29 0 0 0-.35 1.911l1.737.089A5.54 5.54 0 0 1 95 69.553zm-1 4.97c.192.866.498 1.698.91 2.477L97 75.872A7.553 7.553 0 0 1 96.31 74l-2.31.523zm4-6.877L96.585 66A8.735 8.735 0 0 0 95 67.791L96.804 69c.334-.504.734-.96 1.196-1.354z" fill="#18296F" fill-rule="nonzero"/><path d="M159.49 62.444h-21.084c1.065-3.021 2.844-7.004 5.138-9.177 1.785-1.696 7.192-2.705 14.46-2.705.538 0 1.036.006 1.486.012v11.87zm8.976.002V50.584c1.152.042 2.915.149 5.582.382 3.82.328 11.119 6.14 16.8 11.486l-22.382-.006z" fill="#FFF"/><path d="M225.525 49.901h-.001a.508.508 0 0 1-.366-.154c-.097-.1-9.67-9.969-11.791-11.934-4.597-4.26-3.275-9.955-.937-12.463 1.996-2.138 4.223-3.223 6.621-3.223 2.649 0 5.041 1.598 6.45 4.238 1.41-2.64 3.822-4.238 6.497-4.238 2.397 0 4.688 1.116 6.624 3.227 2.287 2.493 3.573 8.177-.935 12.456-2.1 1.99-11.699 11.838-11.796 11.938a.51.51 0 0 1-.366.153" stroke="#FF301D" stroke-width="1.5" fill="#FF301D" fill-rule="nonzero"/><path d="M219.051 23.12c-2.101 0-4.078.976-5.873 2.9-2.068 2.218-3.217 7.269.886 11.071 1.927 1.787 9.655 9.734 11.462 11.594 1.79-1.835 9.58-9.809 11.455-11.589 4.03-3.823 2.912-8.872.886-11.08-1.762-1.921-3.737-2.896-5.87-2.896-2.574 0-4.883 1.77-6.026 4.623a.505.505 0 0 1-.47.314.505.505 0 0 1-.472-.314c-1.142-2.852-3.432-4.623-5.978-4.623" fill="#FFB1AA"/></g></svg>